<?xml version="1.0" standalone="no"?>
<!DOCTYPE svg PUBLIC "-//W3C//DTD SVG 20010904//EN"
 "http://www.w3.org/TR/2001/REC-SVG-20010904/DTD/svg10.dtd">
<svg version="1.0" xmlns="http://www.w3.org/2000/svg"
 width="700.000000pt" height="700.000000pt" viewBox="0 0 700.000000 700.000000"
 preserveAspectRatio="xMidYMid meet">
<metadata>
Created by potrace 1.11, written by Peter Selinger 2001-2013
</metadata>
<g transform="translate(0.000000,700.000000) scale(0.100000,-0.100000)"
fill="#000000" stroke="none">
<path d="M4695 6758 c-55 -22 -104 -41 -110 -42 -5 -2 -17 -6 -25 -9 -8 -4
-62 -24 -120 -46 -58 -21 -188 -70 -290 -109 -102 -38 -270 -102 -375 -141
-104 -40 -199 -76 -210 -80 -11 -5 -72 -28 -135 -51 -118 -44 -148 -58 -95
-45 17 4 37 8 45 10 8 2 157 41 330 86 173 44 320 82 325 83 6 2 24 6 40 11
360 93 725 185 735 185 8 0 10 -6 5 -17 -4 -10 -13 -38 -20 -63 -7 -25 -34
-115 -60 -200 -26 -85 -51 -168 -55 -185 -5 -16 -34 -113 -65 -215 -31 -102
-58 -192 -60 -200 -5 -20 -198 -664 -226 -755 -18 -57 -164 -548 -184 -615 -7
-25 -31 -107 -54 -183 -44 -146 -44 -153 1 -193 12 -11 73 -74 133 -140 163
-175 232 -250 307 -329 36 -38 76 -81 87 -94 12 -13 78 -85 148 -160 71 -74
160 -169 198 -211 39 -41 77 -82 85 -91 30 -32 229 -245 260 -279 32 -35 197
-212 321 -344 36 -39 78 -84 94 -101 15 -16 77 -84 138 -149 62 -66 131 -139
153 -164 41 -45 42 -45 50 -21 4 13 9 29 10 34 1 6 14 53 28 105 15 52 28 102
31 111 2 10 18 68 35 130 18 63 33 121 35 129 2 8 24 92 50 185 25 94 55 204
66 245 35 128 400 1473 410 1510 5 19 21 76 34 125 13 50 28 104 33 121 9 27
5 35 -37 81 -55 60 -235 255 -271 293 -37 39 -214 230 -246 265 -51 57 -245
266 -394 425 -14 15 -68 73 -120 130 -119 129 -124 134 -246 266 -56 60 -112
121 -125 135 -13 15 -69 75 -124 134 -55 59 -113 122 -129 139 -33 37 -214
231 -271 291 l-40 43 -100 -40z"/>
<path d="M4250 6258 c-30 -4 -86 -9 -125 -12 -38 -3 -88 -8 -110 -10 -36 -5
-67 -8 -215 -22 -25 -2 -70 -6 -100 -9 -30 -3 -75 -8 -100 -10 -106 -10 -167
-16 -200 -20 -19 -2 -73 -7 -119 -10 -47 -4 -92 -8 -100 -10 -9 -1 -52 -6 -96
-9 -44 -4 -91 -9 -105 -11 -14 -2 -56 -6 -95 -10 -38 -3 -88 -8 -110 -10 -22
-3 -71 -7 -110 -10 -38 -3 -86 -8 -105 -10 -19 -2 -64 -6 -100 -10 -36 -3 -78
-7 -95 -9 -16 -2 -70 -7 -120 -11 -49 -4 -97 -9 -106 -10 -9 -2 -52 -7 -95
-11 -43 -3 -92 -8 -109 -10 -16 -1 -68 -6 -115 -9 -47 -4 -87 -8 -90 -10 -3
-2 -48 -6 -100 -10 -52 -4 -102 -11 -110 -15 -7 -4 -309 -601 -670 -1325
l-655 -1317 44 -51 c24 -29 72 -83 106 -122 87 -97 308 -347 380 -430 33 -38
65 -73 70 -79 18 -20 159 -180 186 -211 48 -55 194 -220 221 -250 16 -16 28
-33 28 -37 0 -5 4 -8 10 -8 5 0 -174 261 -398 580 -224 319 -424 603 -444 632
-20 29 -34 55 -32 58 3 3 17 5 32 6 15 1 70 5 122 8 52 4 124 9 160 12 36 2
90 6 120 9 30 2 98 7 150 11 52 3 111 7 130 9 19 2 82 6 140 10 58 3 125 8
150 10 25 2 88 7 140 10 168 11 203 13 295 21 50 4 113 8 140 9 52 2 208 13
285 20 25 2 86 7 135 9 50 3 115 8 145 11 30 2 96 7 145 10 50 4 113 8 140 10
28 2 93 7 145 10 52 4 98 9 102 13 7 7 141 276 393 787 79 160 278 562 442
895 237 479 404 818 470 951 3 8 -18 7 -97 -3z"/>
<path d="M974 3199 c30 -66 46 -104 51 -119 1 -3 12 -27 24 -55 13 -27 31 -71
41 -96 10 -26 28 -66 39 -90 10 -24 40 -93 66 -154 26 -60 53 -123 60 -140 8
-16 116 -268 241 -560 124 -291 235 -550 246 -575 10 -25 88 -205 171 -400
l153 -355 139 -22 c77 -12 158 -24 180 -27 22 -3 67 -11 100 -16 33 -6 83 -13
110 -16 28 -3 56 -7 64 -10 7 -2 59 -11 115 -19 141 -20 179 -26 196 -30 8 -2
35 -7 60 -10 67 -9 214 -31 260 -40 14 -2 45 -7 70 -10 25 -3 68 -10 95 -15
43 -8 82 -14 230 -36 11 -1 81 -12 155 -24 74 -11 151 -23 170 -26 33 -4 135
-20 190 -29 34 -5 207 -32 250 -39 19 -3 125 -19 235 -36 110 -17 214 -33 230
-35 17 -3 39 -7 50 -9 17 -3 34 17 97 122 108 179 396 661 419 700 18 31 285
479 317 532 35 57 15 31 -292 -373 -53 -70 -196 -259 -318 -420 -122 -161
-245 -322 -273 -359 -27 -37 -53 -67 -56 -68 -4 0 -12 15 -19 33 -7 17 -16 41
-21 52 -4 11 -54 135 -109 275 -55 140 -105 264 -110 275 -5 11 -80 198 -166
415 -85 217 -162 409 -169 425 -7 17 -25 62 -40 100 -15 39 -33 84 -40 100 -7
17 -81 203 -165 415 -84 212 -158 390 -164 397 -10 10 -42 17 -136 28 -39 5
-99 14 -195 30 -11 2 -70 11 -131 20 -60 8 -121 17 -135 20 -21 3 -55 8 -199
30 -14 3 -43 7 -65 10 -22 3 -51 8 -65 10 -14 3 -43 7 -65 10 -22 3 -58 8 -80
12 -22 3 -49 7 -60 9 -11 1 -49 7 -85 13 -36 5 -83 12 -105 15 -22 4 -51 8
-65 11 -14 2 -43 7 -65 10 -22 3 -69 10 -105 15 -36 6 -81 12 -100 15 -19 3
-62 10 -95 15 -33 5 -78 12 -100 15 -22 4 -80 12 -130 20 -123 19 -152 23
-210 31 -27 3 -52 8 -55 9 -3 2 -35 7 -70 10 -36 4 -67 8 -70 10 -3 2 -41 8
-85 14 -44 6 -91 13 -105 16 -14 2 -42 6 -62 9 -21 3 -55 9 -75 12 -21 3 -49
7 -63 9 -14 3 -51 7 -82 11 l-58 7 34 -74z"/>
</g>
</svg>
